<svg width="44" height="44" viewBox="0 0 44 44" fill="none" xmlns="http://www.w3.org/2000/svg">
<rect width="44" height="44" rx="22" fill="#969696" fill-opacity="0.15"/>
<path d="M28.0469 13.3478C28.5812 12.9776 29.3294 12.8932 29.965 13.1416C30.6006 13.39 31 13.9196 31 14.5007L31 29.498C31 30.0791 30.595 30.6087 29.965 30.8571C29.335 31.1055 28.5869 31.0258 28.0469 30.6509L17.2469 23.1523L16.6 22.7024V29.498C16.6 30.3275 15.7956 30.9977 14.8 30.9977C13.8044 30.9977 13 30.3275 13 29.498L13 14.5007C13 13.6712 13.8044 13.001 14.8 13.001C15.7956 13.001 16.6 13.6712 16.6 14.5007V21.2964L17.2469 20.8464L28.0469 13.3478Z" fill="#D7D7D7"/>
</svg>
