<svg width="34" height="34" viewBox="0 0 34 34" fill="none" xmlns="http://www.w3.org/2000/svg">
<path d="M17 34C26.3898 34 34 26.3898 34 17C34 7.61016 26.3898 0 17 0C7.61016 0 0 7.61016 0 17C0 26.3898 7.61016 34 17 34ZM15.4062 22.8438V18.5938H11.1562C10.273 18.5938 9.5625 17.8832 9.5625 17C9.5625 16.1168 10.273 15.4062 11.1562 15.4062H15.4062V11.1562C15.4062 10.273 16.1168 9.5625 17 9.5625C17.8832 9.5625 18.5938 10.273 18.5938 11.1562V15.4062H22.8438C23.727 15.4062 24.4375 16.1168 24.4375 17C24.4375 17.8832 23.727 18.5938 22.8438 18.5938H18.5938V22.8438C18.5938 23.727 17.8832 24.4375 17 24.4375C16.1168 24.4375 15.4062 23.727 15.4062 22.8438Z" fill="white"/>
</svg>
