<svg width="20" height="20" viewBox="0 0 20 20" fill="none" xmlns="http://www.w3.org/2000/svg">
<path d="M14.1831 0.733162L12.2904 2.6257L17.3741 7.70896L19.2668 5.81642C20.2444 4.83887 20.2444 3.25524 19.2668 2.27769L17.726 0.733162C16.7484 -0.244387 15.1647 -0.244387 14.187 0.733162H14.1831ZM11.4067 3.5094L2.29128 12.628C1.88459 13.0346 1.58739 13.5391 1.42315 14.0904L0.038834 18.7944C-0.0589286 19.1267 0.031013 19.4826 0.273464 19.725C0.515915 19.9674 0.871771 20.0574 1.20025 19.9635L5.90459 18.5793C6.45597 18.4151 6.96043 18.1179 7.36712 17.7112L16.4903 8.59266L11.4067 3.5094Z" fill="white"/>
</svg>
