<svg width="44" height="44" viewBox="0 0 44 44" fill="none" xmlns="http://www.w3.org/2000/svg">
<rect width="44" height="44" rx="22" fill="#969696" fill-opacity="0.15"/>
<path d="M15.9531 30.6522C15.4188 31.0224 14.6706 31.1068 14.035 30.8584C13.3994 30.61 13 30.0804 13 29.4993V14.502C13 13.9209 13.405 13.3913 14.035 13.1429C14.665 12.8945 15.4131 12.9742 15.9531 13.3491L26.7531 20.8477L27.4 21.2976V14.502C27.4 13.6725 28.2044 13.0023 29.2 13.0023C30.1956 13.0023 31 13.6725 31 14.502V29.4993C31 30.3288 30.1956 30.999 29.2 30.999C28.2044 30.999 27.4 30.3288 27.4 29.4993V22.7036L26.7531 23.1536L15.9531 30.6522Z" fill="#D7D7D7"/>
</svg>
