<svg width="46" height="33" viewBox="0 0 46 33" fill="none" xmlns="http://www.w3.org/2000/svg">
<path d="M10.35 32.6875C4.63594 32.6875 0 28.0264 0 22.2812C0 17.743 2.88937 13.884 6.91437 12.4604C6.90719 12.2652 6.9 12.0701 6.9 11.875C6.9 5.48672 12.0462 0.3125 18.4 0.3125C22.6622 0.3125 26.3781 2.63945 28.3691 6.1082C29.4616 5.37109 30.7841 4.9375 32.2 4.9375C36.0094 4.9375 39.1 8.04492 39.1 11.875C39.1 12.7566 38.9347 13.5949 38.64 14.3754C42.8375 15.2281 46 18.9643 46 23.4375C46 28.5467 41.8816 32.6875 36.8 32.6875H10.35ZM16.0281 17.0059C15.3525 17.6852 15.3525 18.7836 16.0281 19.4557C16.7037 20.1277 17.7962 20.135 18.4647 19.4557L21.2678 16.6373V26.3281C21.2678 27.2893 22.0369 28.0625 22.9928 28.0625C23.9487 28.0625 24.7178 27.2893 24.7178 26.3281V16.6373L27.5209 19.4557C28.1966 20.135 29.2891 20.135 29.9575 19.4557C30.6259 18.7764 30.6331 17.6779 29.9575 17.0059L24.2075 11.2246C23.5319 10.5453 22.4394 10.5453 21.7709 11.2246L16.0209 17.0059H16.0281Z" fill="white"/>
</svg>
